PathFileType	3	(X/Y/Z)	D:\Vicon Setup\UG\Test1\New Session\NewSession12.trc
DataRate	CameraRate	NumFrames	NumMarkers	Units	OrigDataRate	OrigDataStartFrame	OrigNumFrames
100.0	100.0	11	27	mm	100.0	561	351	
Frame#	Time	Sternum			LShoulder			RShoulder			LASIS			RASIS			RPSIS			LPSIS			RKneeLateral			RKneeMedial			RFibulaHead			RMidShank			RAnkleLateral			RAnkleMedial			RHeel			RMT5			RMT2			RToe			LKneeLateral			LKneeMedial			LFibulaHead			LMidShank			LAnkleLateral			LAnkleMedial			LHeel			LMT5			LMT2			LToe			
		X1	Y1	Z1	X2	Y2	Z2	X3	Y3	Z3	X4	Y4	Z4	X5	Y5	Z5	X6	Y6	Z6	X7	Y7	Z7	X8	Y8	Z8	X9	Y9	Z9	X10	Y10	Z10	X11	Y11	Z11	X12	Y12	Z12	X13	Y13	Z13	X14	Y14	Z14	X15	Y15	Z15	X16	Y16	Z16	X17	Y17	Z17	X18	Y18	Z18	X19	Y19	Z19	X20	Y20	Z20	X21	Y21	Z21	X22	Y22	Z22	X23	Y23	Z23	X24	Y24	Z24	X25	Y25	Z25	X26	Y26	Z26	X27	Y27	Z27	
561	5.6	-229.1096	1335.642	-1469.0801	-415.33307	1398.4618	-1366.1194	-44.690746	1382.0444	-1393.9894	-330.72305	957.76593	-1427.4015	-72.967651	973.52405	-1404.3248	-167.30573	987.92395	-1237.9102	-296.53796	974.49847	-1243.6687	-67.969429	523.36615	-1226.3848	-193.94226	496.68082	-1256.7285	-67.600845	448.25034	-1188.0724	-160.60788	297.78635	-1131.7231	-120.04037	153.25014	-977.77539	-196.76323	155.15738	-1039.3519	-182.05389	163.07713	-912.17932	-71.633186	25.516796	-1068.0667	-139.5713	52.796253	-1090.8347	-136.53174	40.26395	-1118.9045	-357.01413	502.23892	-1526.3063	-224.05678	492.31769	-1542.1012	-359.66425	439.41766	-1533.1539	-281.8389	306.44861	-1618.5742	-335.34265	91.559753	-1642.4369	-256.10931	126.96056	-1670.5829	-275.35046	52.963375	-1593.473	-369.48083	78.14994	-1788.6155	-309.36523	115.71308	-1793.2231			
562	5.61	-230.86539	1335.975	-1485.3647	-417.23767	1398.114	-1382.3243	-46.472065	1382.0588	-1410.0591	-331.99313	958.60205	-1445.304	-74.409309	972.638	-1422.2352	-168.59914	987.30359	-1255.2871	-298.15921	974.69019	-1261.3867	-66.341583	521.5589	-1247.0032	-191.6225	494.0871	-1277.5149	-65.379608	447.36572	-1207.1562	-158.5887	298.60791	-1146.8989	-119.03175	159.15442	-987.74457	-194.66444	158.11783	-1050.0011	-181.65236	173.56439	-924.16675	-72.169884	26.25563	-1069.21	-139.77209	52.514767	-1093.1226	-136.65471	40.341644	-1119.4591	-357.67816	502.22702	-1543.3738	-225.87738	491.46384	-1558.9641	-361.01346	438.74149	-1547.8861	-281.88678	305.21881	-1630.8673	-335.29446	90.674751	-1651.0311	-255.50371	124.44798	-1679.7419	-274.90253	55.63448	-1597.8313	-366.60114	68.389305	-1795.0537	-306.29993	106.0818	-1801.8458			
563	5.62	-232.68811	1336.8352	-1501.6687	-419.24225	1398.0461	-1398.58	-48.20013	1382.3441	-1426.1414	-333.40314	960.1319	-1462.7773	-76.020905	971.94019	-1440.1031	-169.76312	986.89911	-1273.3201	-299.66608	975.46326	-1278.9115	-64.387482	519.66229	-1268.9838	-188.94075	491.24194	-1299.8046	-62.887772	446.66055	-1227.5624	-155.79799	299.12851	-1163.7471	-117.71213	165.36673	-999.60657	-192.24557	161.03387	-1062.271	-181.19475	185.05887	-938.60364	-72.822441	27.317701	-1070.7161	-139.99631	52.341602	-1096.1635	-136.81952	40.271488	-1120.5963	-359.2598	502.81082	-1557.6023	-228.23993	490.93854	-1574.8046	-362.92908	439.55679	-1562.8593	-282.66531	304.63049	-1642.5106	-336.39932	90.09623	-1657.5873	-255.53897	122.37659	-1687.5984	-275.16574	57.668022	-1600.7141	-366.52835	58.250648	-1800.9813	-305.29941	96.036163	-1809.1907			
564	5.63	-234.4964	1338.1224	-1517.9415	-421.15198	1398.2583	-1414.8772	-49.783772	1382.9581	-1442.181	-334.84698	962.21295	-1479.9045	-77.794189	971.50934	-1457.8782	-170.72638	986.65778	-1291.6593	-300.85153	976.84491	-1296.0835	-62.129265	517.48071	-1292.2225	-185.97197	488.11444	-1323.7909	-60.25407	446.02924	-1249.3348	-153.28049	300.03394	-1182.1631	-116.21535	172.1873	-1013.3853	-189.64633	163.98459	-1076.3312	-180.57147	197.5946	-955.64642	-73.49807	28.660873	-1072.6963	-140.11577	52.379093	-1100.1615	-136.90617	40.024139	-1122.1567	-361.9353	504.27872	-1571.3341	-230.56871	491.15918	-1588.4951	-365.32404	441.39902	-1578.705	-283.48331	304.13519	-1653.7953	-337.15683	90.090446	-1662.1582	-255.52028	120.78654	-1693.7921	-275.50574	59.136456	-1602.4564	-368.08115	50.379429	-1804.7975	-305.96332	87.491302	-1814.7072			
565	5.64	-236.18793	1339.6237	-1534.2634	-422.97064	1398.8224	-1431.1145	-51.657902	1383.908	-1458.0291	-336.29971	964.73688	-1496.4481	-79.870506	971.27954	-1475.4647	-171.2009	986.80457	-1308.9272	-301.81821	978.90161	-1312.3108	-59.704433	515.05005	-1316.6746	-182.71336	484.25711	-1349.8441	-57.529865	445.29095	-1272.5936	-150.37088	300.98297	-1201.9395	-114.33428	179.69168	-1029.0479	-187.02258	167.42915	-1091.6405	-179.58778	211.1564	-975.07684	-74.114738	30.781374	-1075.24	-140.30417	52.818134	-1104.9026	-136.46452	39.40197	-1124.424	-364.49088	506.46378	-1587.7812	-233.01849	492.59631	-1600.8276	-367.65475	443.4566	-1595.1787	-284.45428	304.09756	-1664.7703	-336.86856	90.181694	-1665.5867	-254.97978	120.15426	-1698.0181	-275.40732	59.827183	-1603.6505	-370.30594	46.004406	-1808.1338	-306.83298	82.459488	-1818.5189			
566	5.65	-237.7805	1341.2184	-1550.4364	-424.59088	1399.6776	-1447.243	-53.135082	1385.2264	-1474.1273	-338.06317	967.45959	-1512.5188	-82.205391	971.3443	-1493.2391	-171.30521	987.18634	-1325.4015	-302.27164	980.90997	-1328.8961	-57.488281	512.48187	-1342.1522	-179.57196	479.93802	-1377.8328	-55.270344	444.43433	-1297.2618	-147.50497	302.03998	-1222.9044	-112.26814	187.99899	-1045.979	-184.38956	171.93817	-1108.1365	-178.37547	225.35223	-996.54651	-74.581711	34.239933	-1078.3619	-139.90683	54.399715	-1111.0609	-136.15938	38.746529	-1128.2224	-366.53769	509.28528	-1606.6884	-235.30533	495.95932	-1613.6381	-369.51096	445.45053	-1611.5734	-284.86255	304.23135	-1674.8771	-336.21509	90.981232	-1667.9954	-253.68341	119.78651	-1700.443	-275.59604	60.380383	-1604.0708	-369.62726	45.880394	-1810.0662	-305.37936	78.450417	-1820.755			
567	5.66	-239.20436	1342.891	-1566.4938	-426.0011	1400.8253	-1463.2428	-54.532009	1386.8682	-1490.3423	-340.02231	970.09741	-1528.0262	-84.09214	971.38232	-1509.6987	-171.40421	987.61749	-1341.8137	-302.53943	983.22852	-1344.5319	-56.010223	509.71286	-1368.5469	-176.97676	475.09015	-1407.8462	-53.779263	443.77277	-1323.0795	-144.83771	303.19733	-1245.4496	-110.01381	197.32008	-1063.9779	-180.76631	176.57526	-1125.642	-176.54597	239.88513	-1020.0324	-74.773315	39.06937	-1082.2673	-138.59473	57.03466	-1118.8232	-135.25656	38.185089	-1133.2322	-367.87775	511.59637	-1624.9049	-237.22801	500.39761	-1627.8306	-370.62891	447.17154	-1627.4541	-284.44235	304.38422	-1684.1803	-334.99197	91.514496	-1670.2909	-252.07085	119.29009	-1702.5879	-275.19141	60.730385	-1604.6082	-368.11981	45.755226	-1811.7302	-303.46454	74.878342	-1822.6855			
568	5.67	-240.34915	1344.5719	-1582.3677	-427.31436	1402.1956	-1478.996	-55.849243	1388.4856	-1506.0793	-342.34344	972.52795	-1543.3768	-86.02076	971.72137	-1525.6281	-171.43097	988.03503	-1357.7119	-302.62186	985.27722	-1359.9327	-54.999012	507.4079	-1395.5906	-174.79642	470.57245	-1439.2638	-52.38168	443.58234	-1350.0695	-142.6274	305.08224	-1269.2102	-107.70579	206.90366	-1084.063	-177.7236	182.1915	-1145.2848	-174.43332	254.235	-1046.1021	-74.855255	45.300167	-1087.1511	-136.45131	61.023861	-1129.1326	-133.84851	37.465015	-1139.9156	-368.73422	512.79028	-1641.1573	-238.37755	504.55255	-1643.3195	-371.20752	448.45609	-1642.3684	-283.62122	304.44321	-1692.5151	-334.21835	92.535454	-1672.2616	-250.73865	118.98309	-1704.9889	-275.05435	61.043419	-1605.0183	-367.10645	45.516884	-1812.7751	-302.99728	72.372078	-1824.3129			
569	5.68	-241.29642	1346.2192	-1598.0466	-428.02771	1403.6786	-1494.7346	-56.520687	1390.0912	-1521.8577	-344.83685	974.73846	-1558.6464	-88.103195	972.46777	-1541.2596	-171.578	988.37732	-1373.0953	-302.72229	986.96625	-1375.207	-53.837029	506.10495	-1423.0728	-173.01244	467.48825	-1470.3228	-50.864853	444.14633	-1378.0421	-140.92647	307.7594	-1294.2948	-105.61539	216.26544	-1106.7188	-175.15889	188.09961	-1167.0625	-172.67226	267.70416	-1074.6915	-75.007065	52.784046	-1094.4464	-133.94011	65.368713	-1141.6312	-131.97414	36.651897	-1148.1876	-369.2908	513.45117	-1655.4727	-239.29164	507.35818	-1658.562	-371.52106	449.19583	-1655.7434	-282.59335	304.23761	-1699.8685	-332.95731	92.873192	-1673.7842	-249.61694	118.61848	-1706.9656	-274.60156	61.307739	-1605.4475	-366.78882	44.856346	-1813.4852	-302.95547	70.366249	-1825.5221			
570	5.69	-241.96295	1347.8217	-1613.5297	-428.9433	1405.4464	-1510.2579	-57.253143	1391.7574	-1537.2192	-347.17389	976.89276	-1573.9568	-90.054993	973.75623	-1556.6431	-172.1994	988.84363	-1388.0419	-303.25076	988.47064	-1390.3217	-52.550194	505.85394	-1450.9198	-172.35629	466.09772	-1499.7151	-49.321621	445.21851	-1406.6073	-139.1626	310.77518	-1320.6521	-104.35381	225.07457	-1130.7388	-173.06924	193.78105	-1190.5758	-172.92233	278.67923	-1103.8411	-75.003792	61.999229	-1104.4781	-131.54015	71.341293	-1156.033	-129.54994	35.13736	-1162.0674	-369.63773	513.36194	-1667.6031	-240.35069	508.51886	-1672.6967	-371.80145	449.41946	-1667.1265	-281.7879	303.64124	-1706.1959	-331.94989	93.26252	-1674.8173	-248.44	118.23979	-1708.3514	-274.20432	61.657494	-1605.7999	-366.65405	44.360188	-1813.8654	-302.64438	68.812584	-1826.3363			
571	5.7	-242.42476	1349.4501	-1628.6722	-429.36633	1407.2745	-1525.7742	-57.804077	1393.3635	-1552.1173	-349.21466	978.87659	-1589.1403	-91.79174	975.45123	-1571.7457	-173.41092	989.63	-1402.6217	-304.30356	989.86859	-1405.3015	-51.646427	506.42007	-1478.6765	-172.24382	466.70856	-1528.9678	-47.663876	446.67679	-1435.6249	-137.70126	313.84033	-1347.5751	-104.98017	233.30219	-1153.8956	-171.42247	198.60657	-1214.5157	-176.082	286.09229	-1131.0303	-73.575691	71.929771	-1120.3375	-127.86555	78.457886	-1174.7379	-125.61166	38.118702	-1180.2629	-370.02771	512.7149	-1677.562	-240.86014	508.13382	-1685.5477	-372.23108	449.11853	-1676.0175	-281.38315	302.71957	-1711.7732	-330.88434	93.757355	-1675.9258	-247.28381	117.89256	-1709.7633	-273.68625	62.019207	-1606.2073	-366.39035	43.956261	-1814.2576	-302.43622	67.424789	-1827.2345			
